Coordinates
version=1
nRows=24
nColumns=24
inDegrees=yes

Units are S.I. units (second, meters, Newtons, ...)
Angles are in degrees.

endheader
time	pelvis_tilt	pelvis_list	pelvis_rotation	pelvis_tx	pelvis_ty	pelvis_tz	hip_flexion_r	hip_adduction_r	hip_rotation_r	knee_angle_r	ankle_angle_r	subtalar_angle_r	mtp_angle_r	hip_flexion_l	hip_adduction_l	hip_rotation_l	knee_angle_l	ankle_angle_l	subtalar_angle_l	mtp_angle_l	lumbar_extension	lumbar_bending	lumbar_rotation
      4.23500000	     -6.38508998	     10.94404016	     -6.26084405	     -2.29971934	     -0.01679460	     -0.40249201	     14.64444510	    -14.97908182	     -1.87410968	    -61.13961766	    -24.39842613	    -11.63987753	     18.25240438	     16.09848361	     12.61487801	     -9.91379514	    -14.52918547	      3.66123038	     -9.63930704	      6.03642664	      1.87387853	    -13.20259306	      4.70890772
      4.24000000	     -6.30671508	     10.64534729	     -6.40717381	     -2.29343654	     -0.01558433	     -0.40273848	     15.44170554	    -14.55831506	     -1.70915900	    -61.60083968	    -23.39543385	    -12.08260330	     18.46484949	     15.37574902	     12.41087530	     -9.69952051	    -14.20786006	      3.85086259	     -9.70545207	      5.96126699	      1.76595570	    -12.83777854	      4.52469006
      4.24500000	     -6.19476480	     10.39406823	     -6.53004588	     -2.28708801	     -0.01440707	     -0.40307687	     16.19873512	    -14.20687054	     -1.58093340	    -62.05816530	    -22.09815540	    -12.24972883	     17.80305738	     14.61472496	     12.29855761	     -9.36412746	    -13.91793691	      4.31885861	     -9.80093965	      4.15513874	      1.63151722	    -12.51650788	      4.32619404
      4.25000000	     -6.11030893	     10.14197207	     -6.67822460	     -2.28075819	     -0.01332917	     -0.40329978	     16.98327113	    -13.81998495	     -1.39864902	    -62.43768732	    -21.00621626	    -12.44852021	     17.78140299	     13.88360142	     12.14354910	     -9.18608815	    -13.59355524	      4.59692646	     -9.79685369	      3.72161787	      1.53805477	    -12.20148505	      4.20183018
      4.25500000	     -6.06401204	      9.85074255	     -6.79442180	     -2.27449130	     -0.01228190	     -0.40350715	     17.78123495	    -13.37089904	     -1.26950049	    -62.72206103	    -20.17669265	    -12.88051301	     17.87532079	     13.18583800	     11.94349654	     -8.96389036	    -13.25321405	      4.76555174	     -9.85764551	      3.61699523	      1.46578629	    -11.84821024	      4.02792265
      4.26000000	     -5.94782921	      9.60987468	     -6.84718811	     -2.26816352	     -0.01124214	     -0.40383784	     18.49177010	    -13.02927919	     -1.27828144	    -63.03259328	    -18.84357163	    -13.01367753	     16.24968844	     12.40076494	     11.84891497	     -8.57971725	    -12.94021418	      5.28190531	     -9.88311666	      1.60522449	      1.32250884	    -11.55466266	      3.80885843
      4.26500000	     -5.91449079	      9.37112743	     -6.95055393	     -2.26192923	     -0.01031885	     -0.40404829	     19.29132793	    -12.62687712	     -1.15008535	    -63.20454402	    -18.02454136	    -13.33308434	     16.38175767	     11.69892701	     11.69858725	     -8.44381027	    -12.53649556	      5.42143305	     -9.87377350	      1.55638696	      1.26625808	    -11.25876373	      3.63518342
      4.27000000	     -5.72972762	      9.14098282	     -7.03617099	     -2.25564950	     -0.00927652	     -0.40431350	     19.89801083	    -12.28361452	     -1.12975788	    -63.34624462	    -16.81209182	    -13.40321667	     15.23070989	     10.80104666	     11.60140438	     -8.27111006	    -12.09148339	      5.69619800	     -9.86793191	      0.59845682	      1.05272491	    -10.98554824	      3.43533165
      4.27500000	     -5.73293963	      8.92494931	     -7.09111231	     -2.24946076	     -0.00847827	     -0.40454342	     20.70085638	    -11.90715563	     -1.06595748	    -63.38660750	    -15.99791668	    -13.67203388	     15.34860397	     10.11725533	     11.47101589	     -8.13217261	    -11.64125778	      5.83020294	     -9.77873907	      0.57592304	      1.03124217	    -10.71680991	      3.27431629
      4.28000000	     -5.56230797	      8.71989600	     -7.15740607	     -2.24331385	     -0.00756673	     -0.40480372	     21.29346569	    -11.57700964	     -1.02134537	    -63.37768027	    -14.88134280	    -13.64373275	     14.93405092	      9.22965061	     11.38081744	     -8.10733516	    -11.14308188	      5.99534631	     -9.63067920	      0.38816869	      0.81296968	    -10.47805898	      3.04102689
      4.28500000	     -5.46947664	      8.46541493	     -7.20028511	     -2.23711058	     -0.00669724	     -0.40503134	     21.93112764	    -11.18475666	     -1.08123075	    -63.29147410	    -13.70588115	    -13.70053134	     13.68430741	      8.39642777	     11.22360099	     -8.06383365	    -10.61166309	      6.14651642	     -9.45574572	      0.22112017	      0.68636273	    -10.18088580	      2.90294575
      4.29000000	     -5.47238329	      8.25660964	     -7.18175371	     -2.23101642	     -0.00602035	     -0.40536892	     22.65690972	    -10.85018964	     -1.12416290	    -63.11626815	    -12.75114348	    -13.70933236	     13.76011899	      7.68884438	     11.10559044	     -7.99651286	    -10.09829735	      6.26279647	     -9.24807202	      0.27760409	      0.63961819	     -9.92138354	      2.66463546
      4.29500000	     -5.41249190	      8.01910421	     -7.18519861	     -2.22495814	     -0.00528790	     -0.40566214	     23.27863768	    -10.48342886	     -1.17901591	    -62.84000946	    -11.77902332	    -13.68906126	     13.75171097	      6.90189013	     10.95768411	     -7.97866288	     -9.56011852	      6.35544662	     -9.00412555	      0.39001575	      0.51901002	     -9.64168916	      2.46445041
      4.30000000	     -5.43487673	      7.76332794	     -7.19856136	     -2.21893027	     -0.00467231	     -0.40598416	     23.97597948	    -10.08231075	     -1.24577907	    -62.48181305	    -10.93167598	    -13.72660924	     13.81083228	      6.20448777	     10.78248189	     -7.97693870	     -9.01339322	      6.44002055	     -8.83519681	      0.46855156	      0.48464849	     -9.32314778	      2.25483981
      4.30500000	     -5.22828169	      7.47098397	     -7.21726929	     -2.21287760	     -0.00382788	     -0.40616788	     24.36192713	     -9.67591298	     -1.39418835	    -62.04035922	     -9.77973657	    -13.59579271	     12.77202563	      5.23162276	     10.57337865	     -8.15345977	     -8.40920576	      6.39698796	     -8.41357104	      1.44983106	      0.20392768	     -9.00901823	      2.09710187
      4.31000000	     -5.30420929	      7.26642211	     -7.15203022	     -2.20695021	     -0.00338671	     -0.40653293	     25.06992578	     -9.35655369	     -1.51569013	    -61.55021136	     -8.87375309	    -13.42287399	     12.90196154	      4.62264229	     10.44123828	     -8.09998593	     -7.90498647	      6.45089761	     -8.17154106	      1.59409751	      0.20525948	     -8.74918073	      1.81917977
      4.31500000	     -5.28954715	      7.02665848	     -7.10967902	     -2.20101363	     -0.00287218	     -0.40686755	     25.63475065	     -9.01590057	     -1.67429071	    -60.95042016	     -8.02177113	    -13.26273405	     12.96487962	      3.90566742	     10.27738376	     -8.11524446	     -7.38528624	      6.50378153	     -7.86669175	      1.82966167	      0.11152354	     -8.46109315	      1.58794448
      4.32000000	     -5.22263079	      6.77474824	     -7.06738142	     -2.19508916	     -0.00232329	     -0.40721512	     26.10333245	     -8.67657437	     -1.86665492	    -60.25014997	     -7.22897685	    -13.12229366	     12.90624111	      3.14463401	     10.10663800	     -8.23864421	     -6.87592083	      6.50922424	     -7.52784529	      2.27240354	     -0.04578431	     -8.15797899	      1.31356716
      4.32500000	     -5.16570345	      6.49347535	     -7.07878330	     -2.18916447	     -0.00182697	     -0.40738370	     26.56191083	     -8.26026320	     -2.03592741	    -59.47357549	     -6.50447652	    -13.06522180	     12.49338473	      2.38554368	      9.88180437	     -8.39978648	     -6.33727041	      6.37898808	     -7.20192281	      3.46857991	     -0.18098815	     -7.83391302	      1.18506802
      4.33000000	     -5.26094930	      6.32303233	     -6.97886007	     -2.18327942	     -0.00160033	     -0.40777039	     27.18435856	     -8.01363963	     -2.25365746	    -58.66312494	     -5.81814901	    -12.85911429	     12.62338501	      1.84614168	      9.77693039	     -8.36991834	     -5.90586208	      6.40303566	     -6.95345495	      3.61020234	     -0.16197603	     -7.59925291	      0.91044170
      4.33500000	     -5.28381043	      6.12367440	     -6.90631985	     -2.17740444	     -0.00132088	     -0.40803719	     27.68394819	     -7.72075695	     -2.46224080	    -57.74629892	     -5.21834721	    -12.71627310	     12.71435446	      1.23252953	      9.63750174	     -8.37599747	     -5.48992716	      6.43679451	     -6.66216194	      3.77697587	     -0.22215276	     -7.35412797	      0.68829178
      4.34000000	     -5.22896517	      5.92620207	     -6.82788956	     -2.17151388	     -0.00102162	     -0.40833753	     28.06383128	     -7.46051832	     -2.72236249	    -56.74528204	     -4.66646694	    -12.59684618	     12.76012785	      0.55086307	      9.51249140	     -8.48574246	     -5.09546249	      6.46125372	     -6.32336830	      4.07084004	     -0.36560510	     -7.11101091	      0.40629817
      4.34500000	     -5.28151605	      5.76586218	     -6.77469008	     -2.16562253	     -0.00093149	     -0.40853378	     28.56381837	     -7.19172090	     -2.91567729	    -55.70559079	     -4.18451465	    -12.47920444	     12.82354629	     -0.00329124	      9.40453211	     -8.49382286	     -4.72261597	      6.50016634	     -6.07047681	      4.24657016	     -0.38215176	     -6.90026517	      0.21827578
      4.35000000	     -5.32078438	      5.62442448	     -6.70294684	     -2.15974140	     -0.00085823	     -0.40873447	     29.01237593	     -6.94996745	     -3.12025896	    -54.57793765	     -3.72845902	    -12.35245490	     12.89214335	     -0.53468477	      9.31915252	     -8.56601529	     -4.40799768	      6.49908955	     -5.83759535	      4.38079063	     -0.41644226	     -6.70927373	     -0.02282946
